<?xml version="1.0" encoding="UTF-8"?>
<svg id="Layer_1" data-name="Layer 1" xmlns="http://www.w3.org/2000/svg" xmlns:xlink="http://www.w3.org/1999/xlink" viewBox="0 0 381.24 296.52">
  <defs>
    <style>
      .cls-1 {
        fill: #006956;
      }

      .cls-2 {
        fill: #d69135;
      }

      .cls-3 {
        fill: #0e6959;
      }

      .cls-4 {
        fill: url(#radial-gradient);
      }
    </style>
    <radialGradient id="radial-gradient" cx="188.04" cy="148.26" fx="188.04" fy="148.26" r="111.45" gradientTransform="matrix(1, 0, 0, 1, 0, 0)" gradientUnits="userSpaceOnUse">
      <stop offset="0" stop-color="#fff"/>
      <stop offset="1" stop-color="#bc8d32"/>
    </radialGradient>
  </defs>
  <circle class="cls-4" cx="188.04" cy="148.26" r="111.45"/>
  <g>
    <polygon class="cls-1" points="187.96 0 198.66 23.22 177.41 23.22 187.96 0"/>
    <polygon class="cls-1" points="142.15 7.28 159.5 26.06 139.3 32.63 142.15 7.28"/>
    <polygon class="cls-1" points="100.83 28.36 123.14 40.86 105.95 53.35 100.83 28.36"/>
    <polygon class="cls-1" points="68.05 61.18 93.13 66.17 80.64 83.36 68.05 61.18"/>
    <polygon class="cls-1" points="47.06 194.15 65.84 176.79 72.4 197 47.06 194.15"/>
    <polygon class="cls-1" points="68.14 235.47 80.64 213.16 93.13 230.34 68.14 235.47"/>
    <polygon class="cls-1" points="100.96 268.25 105.95 243.17 123.14 255.66 100.96 268.25"/>
    <polygon class="cls-1" points="142.3 289.28 139.3 263.89 159.5 270.46 142.3 289.28"/>
    <polygon class="cls-1" points="188.12 296.52 177.41 273.29 198.66 273.29 188.12 296.52"/>
    <polygon class="cls-1" points="233.93 289.24 216.57 270.46 236.78 263.89 233.93 289.24"/>
    <polygon class="cls-1" points="275.24 268.16 252.94 255.66 270.12 243.17 275.24 268.16"/>
    <polygon class="cls-1" points="308.03 235.34 282.95 230.34 295.43 213.16 308.03 235.34"/>
    <polygon class="cls-1" points="329.06 194 303.67 197 310.23 176.79 329.06 194"/>
    <polygon class="cls-1" points="307.93 61.05 295.43 83.36 282.95 66.17 307.93 61.05"/>
    <polygon class="cls-1" points="275.12 28.27 270.12 53.35 252.94 40.86 275.12 28.27"/>
    <polygon class="cls-1" points="233.78 7.23 236.78 32.63 216.57 26.06 233.78 7.23"/>
  </g>
  <g>
    <path class="cls-2" d="M65.87,155.67v-5.99h12.24v-10.84h-12.24v-20.82c0-1.93,1.96-3.5,4.37-3.5h9.59v-10.05h-9.59c-8.99,0-16.3,6.08-16.3,13.55v20.82h-4.15v10.84h4.15v5.99c0,7.47,7.31,13.55,16.3,13.55h10.19v-10.05h-10.19c-2.41,0-4.37-1.57-4.37-3.5Z"/>
    <path class="cls-2" d="M249.45,104.66h-1.09c-8.82,0-16,6.04-16,13.47v20.71h-4.1v10.84h4.1v19.53h11.93v-19.53h9.23v19.53h11.93v-51.08c0-7.43-7.18-13.47-16-13.47Zm-5.16,34.18v-20.71c0-1.89,1.83-3.43,4.07-3.43h1.09c2.24,0,4.07,1.54,4.07,3.43v20.71h-9.23Z"/>
    <path class="cls-2" d="M365.23,104.66h-1.09c-1.41,0-2.77,.17-4.08,.46v-.61h-11.93v13.61h0v51.09h11.93v-51.08c0-1.89,1.83-3.43,4.07-3.43h1.09c2.24,0,4.07,1.54,4.07,3.43v51.08h11.93v-51.08c0-7.43-7.18-13.47-16-13.47Z"/>
    <path class="cls-2" d="M21.96,104.66h-1.09c-1.41,0-2.77,.17-4.08,.46v-.61H4.87v13.61h0v51.09h11.93v-51.08c0-1.89,1.83-3.43,4.07-3.43h1.09c2.24,0,4.07,1.54,4.07,3.43v51.08h11.93v-51.08c0-7.43-7.18-13.47-16-13.47Z"/>
    <path class="cls-2" d="M135.43,156.39c0,1.89-1.83,3.43-4.07,3.43h-1.09c-2.24,0-4.07-1.54-4.07-3.43v-51.87h-11.93v51.87c0,1.89-1.83,3.43-4.07,3.43h.86c-2.24,0-4.07-1.54-4.07-3.43v-51.87h-11.93v51.87c0,7.43,7.18,13.47,16,13.47h-.86c3.8,0,7.29-1.13,10.04-2.99,2.75,1.87,6.24,2.99,10.04,2.99h1.09c8.82,0,16-6.04,16-13.47v-51.87h-11.93v51.87Z"/>
    <path class="cls-2" d="M318.45,156.39c0,1.89-1.83,3.43-4.07,3.43h-1.09c-2.24,0-4.07-1.54-4.07-3.43v-51.87h-11.93v51.87c0,1.89-1.83,3.43-4.07,3.43h-1.09c-2.24,0-2.07-1.54-2.07-3.43v-51.87h-11.93v51.87c0,7.43,5.18,13.47,14,13.47h1.09c3.8,0,7.29-1.13,10.04-2.99,2.75,1.87,6.24,2.99,10.04,2.99h1.09c8.82,0,16-6.04,16-13.47v-51.87h-11.93v51.87Z"/>
    <path class="cls-2" d="M202.3,104.51h-16.27v65.34h5.97c.69,0,6.81-.27,13.25-2.76,21.43-8.29,15.65-62.58-2.95-62.58Zm4.89,32.75v9.74c0,5.31-2.29,8.9-6.99,10.99-.75,.33-1.5,.6-2.24,.82v-43.21c.7,.19,1.42,.41,2.13,.69,4.84,1.87,7.1,4.95,7.1,9.7v11.27Z"/>
  </g>
  <g>
    <path class="cls-1" d="M61.79,148.85v-5.99h12.4v-10.84h-12.4v-20.82c0-1.93,1.98-3.5,4.42-3.5h9.72v-10.05h-9.72c-9.1,0-16.51,6.08-16.51,13.55v20.82h-4.21v10.84h4.21v5.99c0,7.47,7.41,13.55,16.51,13.55h10.32v-10.05h-10.32c-2.44,0-4.42-1.57-4.42-3.5Z"/>
    <path class="cls-1" d="M244.78,97.84h-1.1c-8.94,0-16.21,6.04-16.21,13.47v20.71h-4.16v10.84h4.16v19.53h12.09v-19.53h9.35v19.53h12.09v-51.08c0-7.43-7.27-13.47-16.21-13.47Zm-5.22,34.18v-20.71c0-1.89,1.85-3.43,4.12-3.43h1.1c2.27,0,4.12,1.54,4.12,3.43v20.71h-9.35Z"/>
    <path class="cls-1" d="M359.35,97.84s-4.39,.31-5.23,3.76v-3.91h-12.08v13.61h0v51.09h12.09v-51.08c0-1.89,1.85-3.43,4.12-3.43h1.1c2.27,0,4.12,1.54,4.12,3.43v51.08h12.09v-51.08c0-7.43-7.27-13.47-16.21-13.47Z"/>
    <path class="cls-1" d="M17.31,97.84h-1.1c-1.43,0-2.81,.17-4.13,.46v-.61H0v13.61h0v51.09H12.09v-51.08c0-1.89,1.85-3.43,4.12-3.43h1.1c2.27,0,4.12,1.54,4.12,3.43v51.08h12.09v-51.08c0-7.43-7.27-13.47-16.21-13.47Z"/>
    <path class="cls-1" d="M312.69,96.23v53.33c0,1.08-.96,1.96-2.13,1.96h-.96c-1.18,0-2.13-.88-2.13-1.96v-53.33h-13.46v53.33c0,1.08-.96,1.96-2.13,1.96h-.96c-1.18,0-2.13-.88-2.13-1.96v-53.33h-13.46v53.33c0,8.23,6.99,14.93,15.59,14.93h.96c3.16,0,6.26-.94,8.86-2.66,2.6,1.72,5.7,2.66,8.86,2.66h.96c8.6,0,15.59-6.7,15.59-14.93v-53.33h-13.46Z"/>
    <path class="cls-1" d="M128.8,96.23v53.33c0,1.08-.96,1.96-2.13,1.96h-.96c-1.18,0-2.13-.88-2.13-1.96v-53.33h-13.46v53.33c0,1.08-.96,1.96-2.13,1.96h-.96c-1.18,0-2.13-.88-2.13-1.96v-53.33h-13.46v53.33c0,8.23,6.99,14.93,15.59,14.93h.96c3.16,0,6.26-.94,8.86-2.66,2.6,1.72,5.7,2.66,8.86,2.66h.96c8.6,0,15.59-6.7,15.59-14.93v-53.33h-13.46Z"/>
    <path class="cls-1" d="M192.62,97.69h-12.09v65.34h6.04c.69,0,6.97-.08,13.42-2.76,9.06-3.77,14.06-10.91,14.06-20.1v-21.01c0-19.65-21.43-21.48-21.43-21.48Zm9.35,32.75v9.74c0,5.31-2.32,8.9-7.08,10.99-.75,.33-1.52,.6-2.26,.82v-43.21c.71,.19,1.44,.41,2.16,.69,4.9,1.87,7.19,4.95,7.19,9.7v11.27Z"/>
  </g>
  <g>
    <g>
      <g>
        <path class="cls-3" d="M110.93,185.19h-3.89v28.24h-2.41v-28.24h-3.89v-2.62h10.19v2.62Z"/>
        <path class="cls-3" d="M123.53,185.19h-5.75v14.87h5.58v2.62h-5.58v8.13h5.75v2.62h-8.16v-30.86h8.16v2.62Z"/>
        <path class="cls-3" d="M154.68,213.43h-2.41v-10.81h-5.95v10.81h-2.41v-30.86h2.41v17.43h5.95v-17.43h2.41v30.86Z"/>
        <path class="cls-3" d="M171.76,213.43h-2.1l-5.85-20.75c-.38-1.27-.59-2.66-.89-3.97h-.14c.1,2.01,.27,3.97,.27,5.98v18.74h-2.1v-30.86h2.1l5.95,21.45c.31,1.06,.55,2.13,.79,3.19h.1c-.07-1.35-.24-2.74-.24-4.09v-20.55h2.1v30.86Z"/>
        <path class="cls-3" d="M190.04,198c0,5.77-.34,15.84-6.37,15.84-5.68,0-6.37-8.64-6.37-15.84,0-7.82,.86-15.84,6.37-15.84,5.85,0,6.37,9.04,6.37,15.84Zm-10.26,0c0,5.44,.17,13.06,3.89,13.06s3.89-7.61,3.89-13.06-.17-13.06-3.89-13.06c-3.72-.2-3.89,7.61-3.89,13.06Z"/>
        <path class="cls-3" d="M197.95,210.81h5.64v2.62h-8.05v-30.86h2.41v28.24Z"/>
        <path class="cls-3" d="M219.78,198c0,5.77-.34,15.84-6.37,15.84-5.68,0-6.37-8.64-6.37-15.84,0-7.82,.86-15.84,6.37-15.84,5.85,0,6.37,9.04,6.37,15.84Zm-10.26,0c0,5.44,.17,13.06,3.89,13.06s3.89-7.61,3.89-13.06-.17-13.06-3.89-13.06c-3.72-.2-3.89,7.61-3.89,13.06Z"/>
        <path class="cls-3" d="M244.01,213.43h-2.41v-30.86h2.41v30.86Z"/>
        <path class="cls-3" d="M259.81,185.19h-5.75v14.81h5.58v2.62h-5.58v8.19h5.75v2.62h-8.16v-30.86h8.16v2.62Z"/>
      </g>
      <path class="cls-3" d="M273.14,182.49c-.12,.18-.19,.41-.33,.48-3.52,1.64-4.79,4.28-3.41,7.92,.75,2,1.99,3.83,3.06,5.71,1.46,2.55,2.98,5.05,2.87,8.18-.19,5.09-4.37,8.49-9.75,7.66,.26-.24,.43-.54,.62-.55,4.81-.27,6.93-5.65,5.36-10.12-.78-2.21-2.08-4.25-3.23-6.32-1.34-2.43-2.38-4.91-1.99-7.76,.45-3.31,3.62-5.77,6.8-5.19Z"/>
    </g>
    <path class="cls-3" d="M136.94,211.06c-5.57,0-5.57-9.54-5.57-13.14,0-5.72,.71-12.96,5.76-12.97v-2.78h-.03c-8.56,0-8.72,11.95-8.72,16.94,0,5.28,1.08,14.73,8.43,14.73,.1,0,.21,0,.32-.01v-2.78c-.06,0-.13,.01-.19,.01Z"/>
    <path class="cls-3" d="M230.76,182.16c-5.51,0-6.23,7.82-6.23,15.1,0,9.74,.52,16.58,5.99,16.58s5.21-8.32,5.04-10.98c-.32-4.83-5.38-5.72-5.38-5.72v2.62s2.81,.36,3.02,3.04,.25,8.25-2.47,8.25c-2.51,0-3.72-2.62-3.72-14.04,0-5.44,.28-12.03,3.85-12.07,.34,0,.91-2.68,.91-2.68-.32-.06-.65-.1-1.01-.1Z"/>
    <rect class="cls-3" x="114.4" y="199.94" width="8.96" height="2.73"/>
    <rect class="cls-3" x="142.8" y="199.94" width="9.54" height="2.73"/>
    <rect class="cls-3" x="250.26" y="199.94" width="9.54" height="2.73"/>
  </g>
</svg>